<svg xmlns="http://www.w3.org/2000/svg" viewBox="0 0 512 512" width="100%" height="100%">
  <defs>
    <filter id="centerShadowLight" x="-20%" y="-20%" width="140%" height="140%">
      <feDropShadow dx="0" dy="16" stdDeviation="16" flood-color="#004D40" flood-opacity="0.3"/>
    </filter>
  </defs>

  <rect x="0" y="0" width="512" height="512" rx="110" fill="#E8F5E9" />

  <g opacity="0.95">
    <rect x="56" y="40" width="400" height="12" rx="6" fill="#B0BEC5" />
    <rect x="66" y="52" width="380" height="260" fill="#1DE9B6" stroke="#90A4AE" stroke-width="4" stroke-linejoin="round" />

    <rect x="150" y="170" width="60" height="100" rx="6" fill="#1C2326" opacity="0.85" />
    <rect x="250" y="100" width="60" height="170" rx="6" fill="#1C2326" opacity="0.85" />
  </g>

  <g filter="url(#centerShadowLight)">

    <path d="M 126 400 L 126 260 A 12 12 0 0 1 138 248 L 374 248 A 12 12 0 0 1 386 260 L 386 400 Z" fill="#1C2326" stroke="#000000" stroke-width="2" />

    <path d="M 134 392 L 134 264 A 6 6 0 0 1 140 258 L 372 258 A 6 6 0 0 1 378 264 L 378 392 Z" fill="#F8F9FA" />

    <rect x="144" y="268" width="114" height="96" rx="4" fill="#1DE9B6" />

    <rect x="168" y="318" width="20" height="34" rx="3" fill="#1C2326" opacity="0.9" />
    <rect x="208" y="284" width="20" height="68" rx="3" fill="#1C2326" opacity="0.9" />

    <rect x="268" y="268" width="100" height="44" rx="3" fill="#4DB6AC" />
    <rect x="268" y="320" width="100" height="44" rx="3" fill="#80CBC4" />

    <rect x="144" y="374" width="46" height="14" rx="7" fill="#FF9800" />
    <text x="167" y="385" font-family="Menlo, monospace" font-size="9" fill="#000000" text-anchor="middle" font-weight="bold">15:32</text>
    <text x="330" y="386" font-family="Menlo, monospace" font-size="9" fill="#78909C" text-anchor="middle">3 / 12</text>

    <rect x="126" y="398" width="260" height="6" fill="#000000" />

    <polygon points="126,404 386,404 436,464 76,464" fill="#78909C" />
    <polygon points="76,464 436,464 436,476 76,476" fill="#546E7A" />

    <polygon points="140,412 372,412 392,442 120,442" fill="#37474F" opacity="0.6" />
    <polygon points="220,446 292,446 298,458 214,458" fill="#37474F" opacity="0.8" />

  </g>
</svg>
