<svg xmlns="http://www.w3.org/2000/svg" viewBox="0 0 512 512" width="100%" height="100%">
  <rect x="0" y="0" width="512" height="512" rx="120" fill="#E0F2F1" />

  <rect x="64" y="40" width="384" height="10" rx="5" fill="#AAAAAA" />
  <rect x="74" y="50" width="364" height="220" fill="#1DE9B6" />
  <rect x="130" y="140" width="44" height="100" rx="6" fill="#FFFFFF" opacity="0.9" />
  <rect x="194" y="90" width="44" height="150" rx="6" fill="#FFFFFF" opacity="0.9" />
  <rect x="258" y="160" width="44" height="80" rx="6" fill="#FFFFFF" opacity="0.9" />
  <rect x="322" y="120" width="44" height="120" rx="6" fill="#FFFFFF" opacity="0.9" />

  <rect x="32" y="190" width="448" height="260" rx="16" fill="#E0E0E0" stroke="#CCCCCC" stroke-width="4" />
  <rect x="42" y="200" width="428" height="240" fill="#FFFFFF" />

  <rect x="54" y="212" width="200" height="168" rx="8" fill="#1DE9B6" />
  <rect x="80" y="290" width="30" height="60" rx="4" fill="#FFFFFF" />
  <rect x="126" y="240" width="30" height="110" rx="4" fill="#FFFFFF" />
  <rect x="172" y="310" width="30" height="40" rx="4" fill="#FFFFFF" />

  <rect x="266" y="212" width="192" height="80" rx="8" fill="#B2EBF2" />
  <rect x="282" y="228" width="40" height="48" rx="4" fill="#009688" opacity="0.6" />
  <rect x="338" y="238" width="90" height="10" rx="5" fill="#009688" opacity="0.6" />
  <rect x="338" y="258" width="60" height="10" rx="5" fill="#009688" opacity="0.6" />

  <rect x="266" y="300" width="192" height="80" rx="8" fill="#E0F7FA" />
  <rect x="282" y="318" width="150" height="10" rx="5" fill="#00796B" opacity="0.7" />
  <rect x="282" y="340" width="120" height="10" rx="5" fill="#00796B" opacity="0.7" />
  <rect x="282" y="362" width="80" height="10" rx="5" fill="#00796B" opacity="0.7" />

  <rect x="54" y="398" width="70" height="24" rx="12" fill="#FF9800" />
  <rect x="136" y="405" width="50" height="10" rx="5" fill="#E0E0E0" />

  <rect x="16" y="452" width="480" height="16" rx="8" fill="#CCCCCC" />
  <rect x="216" y="452" width="80" height="6" rx="3" fill="#AAAAAA" />
</svg>
