<svg xmlns="http://www.w3.org/2000/svg" viewBox="0 0 512 512" width="100%" height="100%">
  <rect x="0" y="0" width="512" height="512" rx="120" fill="#111518" />

  <rect x="64" y="40" width="384" height="10" rx="5" fill="#555555" />
  <rect x="74" y="50" width="364" height="220" fill="#18A085" />
  <rect x="130" y="140" width="44" height="100" rx="6" fill="#B2EBF2" opacity="0.8" />
  <rect x="194" y="90" width="44" height="150" rx="6" fill="#B2EBF2" opacity="0.8" />
  <rect x="258" y="160" width="44" height="80" rx="6" fill="#B2EBF2" opacity="0.8" />
  <rect x="322" y="120" width="44" height="120" rx="6" fill="#B2EBF2" opacity="0.8" />

  <rect x="32" y="190" width="448" height="260" rx="16" fill="#222222" stroke="#444444" stroke-width="4" />
  <rect x="42" y="200" width="428" height="240" fill="#0A0A0A" />

  <rect x="54" y="212" width="200" height="168" rx="8" fill="#18A085" />
  <rect x="80" y="290" width="30" height="60" rx="4" fill="#B2EBF2" />
  <rect x="126" y="240" width="30" height="110" rx="4" fill="#B2EBF2" />
  <rect x="172" y="310" width="30" height="40" rx="4" fill="#B2EBF2" />

  <rect x="266" y="212" width="192" height="80" rx="8" fill="#137A66" />
  <rect x="282" y="228" width="40" height="48" rx="4" fill="#80CBC4" opacity="0.5" />
  <rect x="338" y="238" width="90" height="10" rx="5" fill="#80CBC4" opacity="0.5" />
  <rect x="338" y="258" width="60" height="10" rx="5" fill="#80CBC4" opacity="0.5" />

  <rect x="266" y="300" width="192" height="80" rx="8" fill="#0E5A4A" />
  <rect x="282" y="318" width="150" height="10" rx="5" fill="#80CBC4" opacity="0.7" />
  <rect x="282" y="340" width="120" height="10" rx="5" fill="#80CBC4" opacity="0.7" />
  <rect x="282" y="362" width="80" height="10" rx="5" fill="#80CBC4" opacity="0.7" />

  <rect x="54" y="398" width="70" height="24" rx="12" fill="#FFC107" />
  <rect x="136" y="405" width="50" height="10" rx="5" fill="#333333" />

  <rect x="16" y="452" width="480" height="16" rx="8" fill="#888888" />
  <rect x="216" y="452" width="80" height="6" rx="3" fill="#666666" />
</svg>
